# xmcd CD database file
#
# Track frame offsets:
#	187
#	19685
#	34687
#	52305
#	70392
#	89540
#	109640
#	127640
#	144672
#	164727
#
# Disc length: 2415 seconds
#
# Revision: 0
# Processed by: cddbd v1.5PL3 Copyright (c) Steve Scherf et al.
# Submitted via: CDex 1.51
#
DISCID=8b096d0a
DTITLE=岩崎宏美 - CD FILE VOL.3
DYEAR=1900
DGENRE=Pop
TTITLE0=思秋期
TTITLE1=折れた口紅
TTITLE2=二十才前
TTITLE3=ザ・マン
TTITLE4=あざやかな場面
TTITLE5=いちご讃歌
TTITLE6=シンデレラ・ハネムーン
TTITLE7=南南西の風の中で
TTITLE8=さよならの挽歌
TTITLE9=夕暮れメヌエット
EXTD=
EXTT0=
EXTT1=
EXTT2=
EXTT3=
EXTT4=
EXTT5=
EXTT6=
EXTT7=
EXTT8=
EXTT9=
PLAYORDER=
